<svg id="Layer_1" xmlns="http://www.w3.org/2000/svg" viewBox="0 0 598.9 95.9"><style>.st0{fill:#fff}.st1{fill:#5e20e5}.st2{fill:#1bfec0}</style><path class="st0" d="M181.6 4.2c0-.7.3-1.4.8-1.9s1.2-.8 2.1-.8h12.7c1.7 0 2.6.9 2.7 2.7v73h36.5c.7 0 1.4.3 1.9.8s.8 1.2.8 2.1v11.4c0 1.7-.9 2.6-2.7 2.7h-52.1c-1.8 0-2.7-.9-2.7-2.7V4.2zM243.9 48c0-4.4.6-8.6 1.7-12.7s2.7-7.9 4.8-11.4c2.1-3.6 4.6-6.8 7.5-9.7 2.9-2.9 6.1-5.4 9.6-7.5 3.5-2.1 7.3-3.7 11.4-4.8C283 .8 287.2.2 291.6.2c4.4 0 8.6.6 12.7 1.7s7.9 2.7 11.4 4.8c3.5 2.1 6.8 4.5 9.7 7.5a47.562 47.562 0 0 1 12.3 21.1c1.1 4.1 1.7 8.3 1.7 12.7 0 4.4-.6 8.6-1.7 12.7s-2.7 7.8-4.8 11.3c-2.1 3.5-4.5 6.7-7.5 9.6-2.9 2.9-6.1 5.4-9.7 7.5-3.5 2.1-7.3 3.7-11.4 4.8-4.1 1.1-8.3 1.7-12.7 1.7-4.4 0-8.6-.6-12.7-1.7s-7.8-2.7-11.4-4.8c-3.5-2.1-6.7-4.6-9.6-7.5-2.9-2.9-5.4-6.1-7.5-9.6-2.1-3.5-3.7-7.3-4.8-11.3-1.2-4-1.7-8.3-1.7-12.7zm18.5 0c0 4.2.7 8.1 2.2 11.8s3.4 6.9 6 9.6c2.6 2.7 5.6 4.9 9.2 6.5 3.5 1.6 7.4 2.4 11.7 2.4 4.2 0 8.1-.8 11.6-2.4 3.6-1.6 6.6-3.7 9.2-6.5 2.6-2.7 4.6-6 6-9.6 1.5-3.7 2.2-7.6 2.2-11.8 0-4.2-.7-8.2-2.2-11.9-1.5-3.7-3.5-6.9-6-9.7-2.6-2.7-5.6-4.9-9.2-6.5-3.6-1.6-7.4-2.4-11.6-2.4-4.2 0-8.1.8-11.7 2.4-3.5 1.6-6.6 3.8-9.2 6.5-2.6 2.7-4.6 6-6 9.7-1.5 3.7-2.2 7.7-2.2 11.9zm106.5 9.6c0 2.9.5 5.7 1.4 8.2 1 2.6 2.3 4.8 4.1 6.8 1.7 1.9 3.8 3.5 6.3 4.6 2.4 1.1 5.1 1.7 8 1.7 2.9 0 5.6-.6 8-1.7 2.4-1.1 4.5-2.7 6.2-4.6 1.7-1.9 3.1-4.2 4.1-6.8 1-2.6 1.4-5.3 1.4-8.2V4.4c0-.7.3-1.4.8-1.9.6-.5 1.3-.8 2.1-.8h12.3c.7 0 1.5.2 2.1.7.7.5 1 1.2 1 2v53.3c0 5.2-1 10.2-3 14.8-2 4.6-4.7 8.7-8.2 12.1-3.5 3.5-7.5 6.2-12.1 8.2s-9.5 3-14.8 3c-3.5 0-6.9-.5-10.1-1.4-3.2-.9-6.3-2.2-9.1-3.9-2.8-1.7-5.4-3.6-7.7-6s-4.3-4.9-6-7.7c-1.7-2.8-3-5.9-3.9-9.1-.9-3.2-1.4-6.6-1.4-10.1V4.4c0-.6.2-1.2.7-1.8.5-.6 1.1-.9 1.9-.9h13c.6 0 1.2.3 1.9.8s1 1.2 1 1.9v53.2zM522.7 48c0 4.4-.6 8.6-1.7 12.6s-2.7 7.7-4.8 11.1c-2.1 3.4-4.6 6.5-7.5 9.3-2.9 2.8-6.1 5.2-9.6 7.1-3.5 2-7.3 3.5-11.4 4.5-4.1 1.1-8.3 1.6-12.7 1.6h-28.7c-.3 0-.7 0-1-.1-.3 0-.7-.1-1-.3-.3-.2-.6-.4-.7-.7-.2-.3-.3-.8-.3-1.4V4.6c0-2.1 1-3.1 3-3.1H475c4.4 0 8.6.6 12.6 1.7 4.1 1.1 7.8 2.6 11.3 4.6 3.5 2 6.7 4.4 9.6 7.2 2.9 2.8 5.4 5.9 7.5 9.4 2.1 3.5 3.7 7.2 4.8 11.2 1.3 3.9 1.9 8 1.9 12.4zm-60.8-29.6v58.8h11.9c4.2 0 8.1-.7 11.8-2.2 3.7-1.4 6.9-3.4 9.6-6 2.7-2.6 4.9-5.7 6.5-9.2 1.6-3.6 2.4-7.5 2.4-11.8 0-4.3-.8-8.2-2.4-11.8-1.6-3.6-3.8-6.7-6.5-9.4-2.7-2.6-6-4.7-9.6-6.1-3.7-1.5-7.6-2.2-11.8-2.3h-11.9zM585 26.3c-.5 0-1-.1-1.5-.4-.5-.3-1-.6-1.6-1.1l-.1-.1c-.8-.8-1.8-1.7-3.1-2.6-1.2-1-2.6-1.8-4.2-2.7-1.5-.8-3.2-1.5-5-2.1-1.8-.6-3.6-.9-5.4-.9-2.3 0-4.4.3-6.2.8-1.8.5-3.3 1.2-4.5 2.1-1.2.9-2.1 1.9-2.7 3.1-.6 1.2-.9 2.5-.9 3.9 0 1.5.5 2.8 1.4 3.9.9 1.1 2.2 2.1 3.8 3 1.6.9 3.4 1.7 5.5 2.4s4.3 1.4 6.5 2.1c3.9 1.2 7.8 2.5 11.6 4s7.2 3.3 10.2 5.4c3 2.1 5.4 4.7 7.3 7.6 1.8 3 2.8 6.6 2.8 10.8 0 4.5-.9 8.6-2.7 12.3-1.8 3.7-4.4 6.8-7.6 9.4-3.2 2.6-7 4.6-11.3 6-4.3 1.4-9 2.1-14 2.1-3.2 0-6.4-.4-9.5-1.1-3.2-.7-6.2-1.8-9.1-3.2-2.9-1.4-5.7-3-8.3-5-2.6-1.9-4.9-4.1-7-6.5v.1l-.1-.2c-.9-1-1.4-2-1.4-2.9 0-.8.5-1.7 1.5-2.7l.9-.9 1.2-1.1c.6-.5 1.3-1.1 2-1.8s1.4-1.3 2.1-1.8c.7-.5 1.4-1 2-1.4.6-.4 1.1-.6 1.5-.6.6 0 1.1.2 1.6.6.5.4.9.7 1.2 1.1l.2.2h-.1c1.5 1.4 3.1 2.7 4.9 3.9 1.8 1.2 3.7 2.4 5.6 3.3 1.9 1 3.8 1.7 5.7 2.3 1.9.6 3.7.8 5.3.8 2.3 0 4.4-.3 6.4-.9 2-.6 3.7-1.4 5.2-2.5s2.6-2.3 3.4-3.8c.8-1.5 1.2-3.2 1.2-5 0-1.8-.5-3.4-1.6-4.7-1.1-1.3-2.5-2.5-4.2-3.4-1.7-1-3.7-1.8-5.9-2.5s-4.4-1.4-6.6-2c-5.1-1.5-9.5-3.2-13.3-5-3.8-1.8-7-3.8-9.5-6s-4.4-4.7-5.7-7.5c-1.3-2.8-1.9-5.9-1.9-9.3 0-3.9.8-7.4 2.3-10.6 1.6-3.2 3.8-5.9 6.6-8.2 2.9-2.3 6.3-4 10.4-5.3C554.5.6 559 0 564 0c3.8 0 7.6.6 11.5 1.8 3.9 1.2 7.5 2.8 10.9 4.9 1 .6 2 1.3 3.1 2.1 1 .8 2 1.6 2.9 2.4.9.8 1.6 1.6 2.2 2.4.6.8.8 1.4.8 2 0 .5-.1 1.1-.4 1.5-.2.5-.6.9-.9 1.4l-1.9 2v-.1c-.6.7-1.3 1.4-1.9 2.1-.7.7-1.3 1.3-2 1.9-.7.6-1.3 1-1.8 1.4-.7.3-1.2.5-1.5.5z"/><path class="st1" d="M81.8.9C63.2.9 47.2 11.5 39.4 27V4.4c0-.8-.3-1.5-.9-2-.6-.5-1.3-.7-2.1-.7H21c-1.6 0-3 .1-4 .2s-2.1.5-3.2 1.2L2.7 9.8C.9 10.8 0 12.1 0 13.7V31c0 .8.2 1.5.7 2.1.4.6 1 .9 1.8.9 0 0 .7-.1 1.1-.3l11.1-6.8v65c0 .6.2 1.2.6 1.8.4.6 1.1.8 2.2.8h19c2 0 2.9-.9 2.9-2.7V69.7c7.8 15.5 23.9 26.2 42.4 26.2 26.2 0 47.5-21.3 47.5-47.5C129.3 22.1 108 .9 81.8.9z"/><path class="st2" d="M118.8 69.7c-2.6-2.7-4.6-6-6-9.6-1.4-3.7-2.2-7.6-2.2-11.8 0-4.2.7-8.2 2.2-11.9 1.4-3.7 3.4-6.9 6-9.7 1.1-1.2 2.3-2.2 3.5-3.1-3.1-5-7.1-9.5-11.8-13-1.6 1.2-3 2.5-4.4 3.9a47.562 47.562 0 0 0-12.3 21.1c-1.1 4.1-1.7 8.3-1.7 12.7 0 4.4.6 8.6 1.7 12.7s2.7 7.8 4.8 11.3c2.1 3.5 4.6 6.7 7.5 9.6 1.5 1.5 3.1 2.9 4.7 4.1 4.7-3.6 8.6-8 11.7-13.1-1.3-.9-2.6-2-3.7-3.2z"/><path class="st0" d="M122.3 23.6c1.7-1.3 3.6-2.5 5.7-3.4 3.5-1.6 7.4-2.4 11.7-2.4 3.4 0 6.6.5 9.6 1.6 3 1 5.8 2.5 8.4 4.4.9.5 1.6.7 2.2.6.6-.1 1.2-.6 1.9-1.4l6-10.3c.5-.9.5-1.7.2-2.4s-.9-1.2-1.6-1.6c-3.9-2.6-8.1-4.6-12.5-6-4.4-1.4-9.1-2.1-14.1-2.1-4.4 0-8.6.6-12.7 1.7S119.2 5 115.7 7c-1.8 1.1-3.5 2.2-5.2 3.5 4.7 3.6 8.7 8 11.8 13.1zM168 83.7l-6.2-10.4c-.6-.8-1.2-1.3-1.8-1.4-.6-.1-1.4.1-2.3.7-2.5 1.9-5.3 3.3-8.4 4.4-3.1 1-6.3 1.6-9.7 1.6-4.2 0-8.1-.8-11.7-2.4-2-.9-3.8-2-5.5-3.2-3.1 5.1-7 9.5-11.7 13.1 1.6 1.2 3.2 2.3 4.9 3.3 3.5 2.1 7.3 3.7 11.4 4.8 4.1 1.1 8.3 1.7 12.7 1.7 4.9 0 9.7-.7 14.2-2.2 4.6-1.4 8.8-3.5 12.6-6.1.7-.4 1.2-.9 1.6-1.6.4-.6.3-1.3-.1-2.3z"/></svg>