<svg clip-rule="evenodd" fill-rule="evenodd" stroke-linejoin="round" stroke-miterlimit="2" viewBox="0 0 560 400" xmlns="http://www.w3.org/2000/svg" xmlns:xlink="http://www.w3.org/1999/xlink"><linearGradient id="a" gradientTransform="matrix(0 42.45 -42.45 0 32 22.39)" gradientUnits="userSpaceOnUse" x1="0" x2="1" y1="0" y2="0"><stop offset="0" stop-color="#01e8f8" stop-opacity=".05"/><stop offset="1" stop-color="#01e8f8" stop-opacity="0"/></linearGradient><linearGradient id="b"><stop offset="0" stop-color="#01e8f7"/><stop offset="1" stop-color="#00c2ff"/></linearGradient><linearGradient id="c" gradientTransform="matrix(1.42 16.97 -16.97 1.42 51.9 24.17)" gradientUnits="userSpaceOnUse" x1="0" x2="1" xlink:href="#b" y1="0" y2="0"/><linearGradient id="d" gradientTransform="matrix(16.48 26.16 -26.16 16.48 23.95 15.05)" gradientUnits="userSpaceOnUse" x1="0" x2="1" y1="0" y2="0"><stop offset="0" stop-color="#01e8f7"/><stop offset="1" stop-color="#00b3ec"/></linearGradient><linearGradient id="e" gradientTransform="matrix(78.8361 -2024.45 2024.45 78.8361 1647 1872.2)" gradientUnits="userSpaceOnUse" x1="0" x2="1" xlink:href="#b" y1="0" y2="0"/><g transform="matrix(4.6875 0 0 4.6875 130 50)"><circle cx="32" cy="32" fill="url(#a)" r="32"/><g fill-rule="nonzero"><path d="m57 29.88c.22-4.61-3-7.67-6.64-9.77l-2.36 13.89c.985-.137 1.983.163 2.73.82.872.856.951 2.252.18 3.2 2.28-.38 5.83-2.57 6.09-8.14z" fill="url(#c)"/><path d="m26 13.73-2.8-2.83c4.24-.52 15.43.14 26.26 6.93.099.606.099 1.224 0 1.83l.91.46c1.469 2.437 1.895 5.366 1.18 8.12-.94 3.76-2.55 5.42-3.27 5.76-1.45 0-3.92.84-4.72 4.56s-2.34 4.53-3 4.47l-16 .19-10.56-6.22-1.52-12.87 3-4 5.36-4.38 3.82-1.56zm18.91 5.27c-.452.479-.979.881-1.56 1.19-4.11-.88-5.6-3-5.6-3 3.495-.104 6.953.746 10 2.46-.928-.291-1.878-.509-2.84-.65z" fill="url(#d)"/><path d="m43.42 38.56c-3.044 1.464-6.382 2.213-9.76 2.19-10.09 0-18.26-6.34-18.26-14.15 0-5.78 4.46-10.74 10.85-12.94-12.16.7-21.94 10.47-21.94 22.53 0 13.92 12.41 25.42 27.69 25.42 10.798-.089 20.74-6.026 25.94-15.49-6.85 1.54-14.94-1.39-14.52-7.56z" fill="url(#e)"/></g></g></svg>