<?xml version="1.0" encoding="utf-8"?>
<!-- Generator: Adobe Illustrator 18.1.1, SVG Export Plug-In . SVG Version: 6.00 Build 0)  -->
<svg version="1.1" xmlns="http://www.w3.org/2000/svg" xmlns:xlink="http://www.w3.org/1999/xlink" x="0px" y="0px"
	 viewBox="0 0 242.9 68" enable-background="new 0 0 242.9 68" xml:space="preserve">
<symbol  id="volume" viewBox="-22.7 -22.7 45.4 45.4">
	<g>
		
			<linearGradient id="SVGID_1_" gradientUnits="userSpaceOnUse" x1="-1.068656e-009" y1="23.7934" x2="1.080870e-009" y2="-24.0838">
			<stop  offset="0" style="stop-color:#00774A"/>
			<stop  offset="0.6" style="stop-color:#8CCAAE"/>
			<stop  offset="1" style="stop-color:#00975F"/>
		</linearGradient>
		<polygon fill="url(#SVGID_1_)" points="22.7,-22.7 -22.7,-22.7 -22.7,22.7 22.7,22.7 		"/>
		
			<linearGradient id="SVGID_2_" gradientUnits="userSpaceOnUse" x1="-7.154047e-002" y1="33.9436" x2="-7.154047e-002" y2="-19.8565">
			<stop  offset="0" style="stop-color:#00975F"/>
			<stop  offset="0.3" style="stop-color:#8CCAAE"/>
			<stop  offset="0.55" style="stop-color:#00975F"/>
			<stop  offset="0.8352" style="stop-color:#00774A"/>
			<stop  offset="0.8691" style="stop-color:#007C4E"/>
			<stop  offset="0.9244" style="stop-color:#00895A"/>
			<stop  offset="0.9938" style="stop-color:#009E6E"/>
			<stop  offset="1" style="stop-color:#00A070"/>
		</linearGradient>
		<path fill="url(#SVGID_2_)" d="M21.3-0.3c0-9.5,0.4-19.2,0.4-19.2c0-1.1-0.7-1.8-1.6-1.8h-39.3c-0.9,0-1.5,0.8-1.6,1.8
			c0,0-1.1,8.3-1.1,20.9c0,12.6,1.1,18.6,1.1,18.6c0.1,1,0.7,1.8,1.6,1.8h39.3c0.9,0,1.6-0.8,1.6-1.8C21.7,20.1,21.3,9.2,21.3-0.3z"
			/>
		<g>
			<g>
				<linearGradient id="SVGID_3_" gradientUnits="userSpaceOnUse" x1="8.5463" y1="-16.8858" x2="8.5463" y2="17.9297">
					<stop  offset="0" style="stop-color:#00A97C"/>
					<stop  offset="1" style="stop-color:#00975F"/>
				</linearGradient>
				<path fill="url(#SVGID_3_)" d="M12.5,10.4C9.7,8.8,8.9,8.7,5.8,6.8L6,7.2c1.6,1.7,2.3,2.5,3.3,4c-2.8-0.2-6.9-0.5-9.8-1.1l0,0
					l0,0l0,0l0.2,0.3c2.6,1.3,7.6,2.6,10.1,2.9c-0.6,0.9-5.6,3.6-6.8,4.1l0,0l0,0l0,0l0.1,0.3c3.8-0.4,8.8-2.2,10.9-3.5
					c0.9,0.3,1.9,0.3,3.6,0.5c0,0-0.3-1-2.1-2.3l0,0l0,0l0,0c0.5-1.2-0.6-8.1-1.6-9.9l0,0l0,0l0,0C13.9,5.3,13.6,8.9,12.5,10.4z"/>
				<linearGradient id="SVGID_4_" gradientUnits="userSpaceOnUse" x1="-13.0547" y1="-16.8878" x2="-13.0547" y2="17.9381">
					<stop  offset="0" style="stop-color:#00A97C"/>
					<stop  offset="1" style="stop-color:#00975F"/>
				</linearGradient>
				<path fill="url(#SVGID_4_)" d="M-8-14.1l0.1,0.3c-1.5,0.6-3,1-4.2,2.2l0,0l0,0l0,0l0,0l0,0l0,0l0,0l0,0l0,0l0,0l0,0l0,0l0,0l0,0
					l0,0l0,0l0,0l0,0l0,0l0,0l0,0l0,0l0,0l0,0l0,0l0,0l0,0l0,0l0,0l0,0l0,0c0.4,1.1,0.8,1.9,1.5,2.9l0,0l0,0l0,0l0,0l0,0l0,0l0,0
					l0,0l0,0l0,0l0,0l0,0l0,0l0,0l0,0l0,0l0,0l0,0l0,0l0,0l0,0l0,0l0,0l0,0l0,0l0,0l0,0l0,0l0,0l0,0l0,0l0.1,0.3
					c-1.3-0.2-2.4-0.7-3.5-0.9l0,0l0,0l0,0l0,0l0,0l0,0l0,0l0,0l0,0l0,0l0,0l0,0l0,0l0,0l0,0l0,0l0,0l0,0l0,0l0,0l0,0l0,0l0,0l0,0
					l0,0l0,0l0,0l0,0l0,0l0,0l0,0c-0.9,1.5-1.2,3.6-1.7,5.6l-0.1-0.3l0,0l0,0l0,0l0,0l0,0l0,0l0,0l0,0l0,0l0,0l0,0l0,0l0,0l0,0l0,0
					c-0.2-2.3-0.3-3.9,0-5.7l0,0l0,0l0,0l0,0l0,0l0,0l0,0l0,0l0,0l0,0l0,0l0,0l0,0l0,0l0,0l0,0l0,0l0,0l0,0l0,0l0,0l0,0l0,0l0,0l0,0
					l0,0l0,0l0,0l0,0l0,0l0,0c-0.9-0.3-1.7-0.3-2.5-0.6l-0.1-0.3l0,0l0,0l0,0l0,0l0,0l0,0l0,0l0,0l0,0l0,0l0,0l0,0l0,0l0,0l0,0l0,0
					l0,0l0,0l0,0l0,0l0,0l0,0l0,0l0,0l0,0l0,0l0,0l0,0l0,0l0,0l0,0c1.2-0.7,2.1-1.3,3.5-1.9l0,0l0,0l0,0l0,0l0,0l0,0l0,0l0,0l0,0
					l0,0l0,0l0,0l0,0l0,0l0,0l0,0l0,0l0,0l0,0l0,0l0,0l0,0l0,0l0,0l0,0l0,0l0,0l0,0l0,0l0,0l0,0c0.7-1.5,1.5-2.6,2.7-3.8l0,0l0,0
					l0,0l0,0l0,0l0,0l0,0l0,0l0,0l0,0l0,0l0,0l0,0l0,0l0,0l0,0l0,0l0,0l0,0l0,0l0,0l0,0l0,0l0,0l0,0l0,0l0,0l0,0l0,0l0,0l0,0
					l0.1,0.3c-0.2,0.9-0.5,1.6-0.4,2.6l0,0l0,0l0,0l0,0l0,0l0,0l0,0l0,0l0,0l0,0l0,0l0,0l0,0l0,0l0,0l0,0l0,0l0,0l0,0l0,0l0,0l0,0
					l0,0l0,0l0,0l0,0l0,0l0,0l0,0l0,0l0,0C-10.9-13.8-9.6-14-8-14.1z"/>
				<linearGradient id="SVGID_5_" gradientUnits="userSpaceOnUse" x1="-6.3257" y1="-16.8801" x2="-6.3257" y2="17.9245">
					<stop  offset="0" style="stop-color:#00A97C"/>
					<stop  offset="1" style="stop-color:#00975F"/>
				</linearGradient>
				<path fill="url(#SVGID_5_)" d="M-3.8,8.7c0,0-0.6-1.1-1.1-2.5H-5l0,0l0,0c3.5-0.5,6.8-1.9,7.6-2.4L2.5,3.5l0,0l0,0l0,0l0,0l0,0
					l0,0l0,0C-1.2,4.2-3.1,4.1-4.4,4l0,0l0,0l0,0C-5.8,3.8-6,3.7-6,3.7l0,0l0,0l0,0l0,0l0,0l0,0l0,0C-6.8,2-7.3-0.8-7.5-1.8
					l-0.1-0.3l0,0l0,0l0,0l0,0l0,0l0,0l0,0c-0.7,1.6-1.6,4.8-1.6,4.8l0,0l0,0l0,0l0,0l0,0l0,0l0,0c-1.8-1-6-4.9-6-4.9l0,0l0,0l0,0
					l0,0l0,0l0,0l0,0c2.3,4.6,4.7,6.7,4.7,6.7l0,0l0,0l0,0l0,0l0,0l0,0l0,0c-0.8,0.8-2.9,1.2-4.5,1.3l0,0l0,0l0,0l0.1,0.3
					c1,0.3,3,0.4,4.3,0.5l0,0l0,0l0,0l0,0l0,0l0,0l0,0c1.6,0,2.5,0,2.5,0l0,0l0,0l0,0C-6.7,7.6-4.6,8.6-3.8,8.7z"/>
				<linearGradient id="SVGID_6_" gradientUnits="userSpaceOnUse" x1="-0.5078" y1="-16.8852" x2="-0.5078" y2="17.9244">
					<stop  offset="0" style="stop-color:#00A97C"/>
					<stop  offset="1" style="stop-color:#00975F"/>
				</linearGradient>
				<path fill="url(#SVGID_6_)" d="M0.6-11.2c-0.7-1-1.4-1.8-2.2-2.7l0,0l0,0l0,0l0,0l0,0l0,0l0,0l0,0l0,0l0,0l0,0l0,0l0,0l0,0l0,0
					l0,0l0,0l0,0l0,0l0,0l0,0l0,0l0,0l0,0l0,0l0,0l0,0l0,0l0,0l0,0l0,0c-1.2-0.3-2.6-0.2-3.7-0.2l-0.1-0.3l0,0l0,0l0,0l0,0l0,0l0,0
					l0,0l0,0l0,0l0,0l0,0l0,0l0,0l0,0l0,0l0,0l0,0l0,0l0,0l0,0l0,0l0,0l0,0l0,0l0,0l0,0l0,0l0,0l0,0l0,0l0,0
					c0.8-0.4,1.6-0.7,2.5-0.9l0,0l0,0l0,0l0,0l0,0l0,0l0,0l0,0l0,0l0,0l0,0l0,0l0,0l0,0l0,0l0,0l0,0l0,0l0,0l0,0l0,0l0,0l0,0l0,0
					l0,0l0,0l0,0l0,0l0,0l0,0l0,0c-0.7-0.6-1.6-1.1-2.3-1.6l-0.1-0.3l0,0l0,0l0,0l0,0l0,0l0,0l0,0l0,0l0,0l0,0l0,0l0,0l0,0l0,0l0,0
					l0,0l0,0l0,0l0,0l0,0l0,0l0,0l0,0l0,0l0,0l0,0l0,0l0,0l0,0l0,0l0,0c1.4,0.3,3.3,0.9,4.7,1.8l0,0l0,0l0,0l0,0l0,0l0,0l0,0l0,0
					l0,0l0,0l0,0l0,0l0,0l0,0l0,0l0,0l0,0l0,0l0,0l0,0l0,0l0,0l0,0l0,0l0,0l0,0l0,0l0,0l0,0l0,0l0,0c0.7,0,1.4,0,1.9,0.1l0,0l0,0
					l0,0l0,0l0,0l0,0l0,0l0,0l0,0l0,0l0,0l0,0l0,0l0,0l0,0l0,0l0,0l0,0l0,0l0,0l0,0l0,0l0,0l0,0l0,0l0,0l0,0l0,0l0,0l0,0l0,0
					c0,0,0.1,0.3,0.1,0.3c-0.1,0.3-0.4,0.5-0.5,1l0,0l0,0l0,0l0,0l0,0l0,0l0,0l0,0l0,0l0,0l0,0l0,0l0,0l0,0l0,0l0,0l0,0l0,0l0,0l0,0
					l0,0l0,0l0,0l0,0l0,0l0,0l0,0l0,0l0,0l0,0l0,0c1.3,1,2.2,1.9,3.3,3l0,0l0,0l0,0l0,0l0,0l0,0l0,0l0,0l0,0l0,0l0,0l0,0l0,0l0,0
					l0,0l0,0l0,0l0,0l0,0l0,0l0,0l0,0l0,0l0,0l0,0l0,0l0,0l0,0l0,0l0,0l0,0l0.2,0.3c-1.1-0.7-2.4-1.8-3.6-2.4l0,0l0,0l0,0l0,0l0,0
					l0,0l0,0l0,0l0,0l0,0l0,0l0,0l0,0l0,0l0,0l0,0l0,0l0,0l0,0l0,0l0,0l0,0l0,0l0,0l0,0l0,0l0,0l0,0l0,0l0,0l0,0
					C0.7-12.4,0.7-11.9,0.6-11.2z"/>
			</g>
			<g>
				<path fill="#FFFFFF" d="M12.7,10.7C9.9,9.1,9,9,6,7.1c1.8,1.9,2.4,2.7,3.5,4.4c-2.8-0.1-6.9-0.5-9.8-1.1l0,0l0,0l0,0
					c2.5,1.4,7.6,2.9,10.2,3.2c-0.6,0.8-5.6,3.5-6.8,4.1l0,0l0,0l0,0c3.9-0.3,8.8-1.8,11.1-3.2c0.9,0.3,1.9,0.3,3.6,0.5l0,0l0,0l0,0
					c-0.4-0.7-0.5-1.2-2.1-2.3l0,0l0,0l0,0c0.5-1.2-0.6-8.1-1.6-9.9l0,0l0,0l0,0C14,5.6,13.8,9.2,12.7,10.7z"/>
				<path fill="#FFFFFF" d="M-7.8-13.8c-1.6,0.6-2.8,1.3-4,2.5l0,0l0,0l0,0l0,0l0,0l0,0l0,0l0,0l0,0l0,0l0,0l0,0l0,0l0,0l0,0l0,0
					l0,0l0,0l0,0l0,0l0,0l0,0l0,0l0,0l0,0l0,0l0,0l0,0l0,0l0,0l0,0c0.4,1.1,0.8,1.9,1.5,2.9l0,0l0,0l0,0l0,0l0,0l0,0l0,0l0,0l0,0
					l0,0l0,0l0,0l0,0l0,0l0,0l0,0l0,0l0,0l0,0l0,0l0,0l0,0l0,0l0,0l0,0l0,0l0,0l0,0l0,0l0,0l0,0c-1.3-0.2-2.3-0.3-3.4-0.6l0,0l0,0
					l0,0l0,0l0,0l0,0l0,0l0,0l0,0l0,0l0,0l0,0l0,0l0,0l0,0l0,0l0,0l0,0l0,0l0,0l0,0l0,0l0,0l0,0l0,0l0,0l0,0l0,0l0,0l0,0l0,0
					c-0.9,1.6-1.3,3.2-1.8,5.3l0,0l0,0l0,0l0,0l0,0l0,0l0,0l0,0l0,0l0,0l0,0l0,0l0,0l0,0l0,0c-0.3-2.3-0.3-3.9,0-5.7l0,0l0,0l0,0
					l0,0l0,0l0,0l0,0l0,0l0,0l0,0l0,0l0,0l0,0l0,0l0,0l0,0l0,0l0,0l0,0l0,0l0,0l0,0l0,0l0,0l0,0l0,0l0,0l0,0l0,0l0,0l0,0
					c-1-0.3-1.8-0.5-2.6-0.9l0,0l0,0l0,0l0,0l0,0l0,0l0,0l0,0l0,0l0,0l0,0l0,0l0,0l0,0l0,0l0,0l0,0l0,0l0,0l0,0l0,0l0,0l0,0l0,0l0,0
					l0,0l0,0l0,0l0,0l0,0l0,0c1.2-0.7,2.2-1.3,3.5-1.9l0,0l0,0l0,0l0,0l0,0l0,0l0,0l0,0l0,0l0,0l0,0l0,0l0,0l0,0l0,0l0,0l0,0l0,0
					l0,0l0,0l0,0l0,0l0,0l0,0l0,0l0,0l0,0l0,0l0,0l0,0l0,0c0.7-1.5,1.5-2.6,2.7-3.8l0,0l0,0l0,0l0,0l0,0l0,0l0,0l0,0l0,0l0,0l0,0
					l0,0l0,0l0,0l0,0l0,0l0,0l0,0l0,0l0,0l0,0l0,0l0,0l0,0l0,0l0,0l0,0l0,0l0,0l0,0l0,0c-0.3,1-0.4,1.8-0.2,2.9l0,0l0,0l0,0l0,0l0,0
					l0,0l0,0l0,0l0,0l0,0l0,0l0,0l0,0l0,0l0,0l0,0l0,0l0,0l0,0l0,0l0,0l0,0l0,0l0,0l0,0l0,0l0,0l0,0l0,0l0,0l0,0
					C-10.8-13.5-9.5-13.7-7.8-13.8z"/>
				<path fill="#FFFFFF" d="M-3.6,9L-3.6,9L-3.6,9L-3.6,9L-3.6,9c-0.5-0.7-1.1-1.9-1.2-2.4l0,0l0,0l0,0C-0.7,6,2.6,3.8,2.6,3.8l0,0
					l0,0l0,0l0,0l0,0l0,0l0,0C-1,4.5-2.9,4.4-4.3,4.3l0,0l0,0l0,0C-5.6,4.2-5.9,4-5.9,4l0,0l0,0l0,0l0,0l0,0l0,0l0,0
					c-1-2.1-1.6-5.8-1.6-5.8l0,0l0,0l0,0l0,0l0,0l0,0l0,0C-8.1-0.2-9.1,3-9.1,3l0,0l0,0l0,0l0,0l0,0l0,0l0,0c-1.8-1-6-4.9-6-4.9l0,0
					l0,0l0,0l0,0l0,0l0,0l0,0c2.3,4.6,4.7,6.7,4.7,6.7l0,0l0,0l0,0l0,0l0,0l0,0l0,0c-0.8,0.8-2.9,1.2-4.5,1.3l0,0l0,0l0,0
					c0.8,0.3,2.9,0.7,4.5,0.8l0,0l0,0l0,0l0,0l0,0l0,0l0,0c1.6,0,2.5,0,2.5,0l0,0l0,0l0,0C-6.5,7.9-4.4,8.9-3.6,9z"/>
				<path fill="#FFFFFF" d="M0.8-10.9c-0.7-1-1.4-1.8-2.2-2.7l0,0l0,0l0,0l0,0l0,0l0,0l0,0l0,0l0,0l0,0l0,0l0,0l0,0l0,0l0,0l0,0l0,0
					l0,0l0,0l0,0l0,0l0,0l0,0l0,0l0,0l0,0l0,0l0,0l0,0l0,0l0,0c-1.4-0.4-2.5-0.5-3.9-0.5l0,0l0,0l0,0l0,0l0,0l0,0l0,0l0,0l0,0l0,0
					l0,0l0,0l0,0l0,0l0,0l0,0l0,0l0,0l0,0l0,0l0,0l0,0l0,0l0,0l0,0l0,0l0,0l0,0l0,0l0,0l0,0c0.8-0.4,1.6-0.7,2.5-0.9l0,0l0,0l0,0
					l0,0l0,0l0,0l0,0l0,0l0,0l0,0l0,0l0,0l0,0l0,0l0,0l0,0l0,0l0,0l0,0l0,0l0,0l0,0l0,0l0,0l0,0l0,0l0,0l0,0l0,0l0,0l0,0
					c-0.9-0.8-1.6-1.3-2.5-1.9l0,0l0,0l0,0l0,0l0,0l0,0l0,0l0,0l0,0l0,0l0,0l0,0l0,0l0,0l0,0l0,0l0,0l0,0l0,0l0,0l0,0l0,0l0,0l0,0
					l0,0l0,0l0,0l0,0l0,0l0,0l0,0c1.4,0.3,3.3,0.9,4.7,1.8l0,0l0,0l0,0l0,0l0,0l0,0l0,0l0,0l0,0l0,0l0,0l0,0l0,0l0,0l0,0l0,0l0,0
					l0,0l0,0l0,0l0,0l0,0l0,0l0,0l0,0l0,0l0,0l0,0l0,0l0,0l0,0c0.7,0,1.4,0,1.9,0.1l0,0l0,0l0,0l0,0l0,0l0,0l0,0l0,0l0,0l0,0l0,0
					l0,0l0,0l0,0l0,0l0,0l0,0l0,0l0,0l0,0l0,0l0,0l0,0l0,0l0,0l0,0l0,0l0,0l0,0l0,0l0,0c-0.1,0.4-0.2,0.7-0.3,1.3l0,0l0,0l0,0l0,0
					l0,0l0,0l0,0l0,0l0,0l0,0l0,0l0,0l0,0l0,0l0,0l0,0l0,0l0,0l0,0l0,0l0,0l0,0l0,0l0,0l0,0l0,0l0,0l0,0l0,0l0,0l0,0
					c1.3,1,2.3,1.9,3.3,3l0,0l0,0l0,0l0,0l0,0l0,0l0,0l0,0l0,0l0,0l0,0l0,0l0,0l0,0l0,0l0,0l0,0l0,0l0,0l0,0l0,0l0,0l0,0l0,0l0,0
					l0,0l0,0l0,0l0,0l0,0l0,0c-1.2-0.8-2.2-1.4-3.5-2l0,0l0,0l0,0l0,0l0,0l0,0l0,0l0,0l0,0l0,0l0,0l0,0l0,0l0,0l0,0l0,0l0,0l0,0l0,0
					l0,0l0,0l0,0l0,0l0,0l0,0l0,0l0,0l0,0l0,0l0,0l0,0C0.8-12.1,0.8-11.6,0.8-10.9z"/>
			</g>
		</g>
	</g>
</symbol>
<g id="Embleme">
	
		<use xlink:href="#volume"  width="45.4" height="45.4" x="-22.7" y="-22.7" transform="matrix(1 0 0 -1 34.3345 34.3335)" overflow="visible"/>
</g>
<g id="noms">
	<g>
		<g>
			<g>
				<path d="M74.6,40.3c0.4,1.1,3.5,8.1,4.3,9.7h-3.2c-0.1-0.4-0.4-0.9-0.8-2.1c-0.5,0-1,0-1.6,0c-0.6,0-1.1,0-1.6,0
					c-0.3,0.8-0.5,1.4-0.8,2.1H68c0.5-1.2,3.7-8.1,4.3-9.7H74.6z M74.3,46.4c-0.4-0.9-0.9-2.1-1.1-2.9c-0.3,0.8-0.8,2.1-1.1,2.9
					c0.4,0,0.8,0,1.2,0C73.6,46.4,73.9,46.4,74.3,46.4z"/>
				<path d="M83.7,40c1.2,0,2.4,0.2,3.2,0.4v2.5c-1.1-0.6-2.1-1.1-3.5-1.1c-1.1,0-1.2,0.4-1.2,0.8c0,1.6,5.5,1.6,5.5,4.6
					c0,1.9-1.8,3.1-4.7,3.1c-1.3,0-2.6-0.3-3.4-0.6v-2.3c2,0.9,3.1,1.3,4,1.3c0.8,0,1.3-0.3,1.3-1c0-1.8-5.5-1.7-5.5-4.8
					C79.4,41,81.2,40,83.7,40z"/>
				<path d="M93.1,40c1.2,0,2.4,0.2,3.2,0.4v2.5c-1.1-0.6-2.1-1.1-3.5-1.1c-1.1,0-1.2,0.4-1.2,0.8c0,1.6,5.5,1.6,5.5,4.6
					c0,1.9-1.8,3.1-4.7,3.1c-1.3,0-2.6-0.3-3.4-0.6v-2.3c2,0.9,3.1,1.3,4,1.3c0.8,0,1.3-0.3,1.3-1c0-1.8-5.5-1.7-5.5-4.8
					C88.8,41,90.6,40,93.1,40z"/>
				<path d="M106.4,40.3v1.6c-1.2-0.1-2.1-0.2-2.9-0.2h-1.3c-0.2,0-0.3,0-0.5,0c-0.1,0-0.2,0-0.4,0c0,0.9,0,1.8,0,2.5l3.5-0.1v1.6
					l-3.5-0.1c0,0.6,0,1.9,0.1,2.8c1.6,0,3.7-0.1,5.3-0.2V50h-8.4c0.1-1.3,0.1-4.2,0.1-5c0-0.9-0.1-3.5-0.1-4.6H106.4z"/>
				<path d="M116.8,40.3v1.6c-1.4-0.1-2-0.2-3.1-0.2c-0.1,1.1-0.1,2.6-0.1,3.2c0,0.8,0,3.6,0.2,5.1h-3.2c0.2-1.5,0.2-4.2,0.2-5.1
					c0-0.6-0.1-2.2-0.1-3.2c-1.1,0-1.7,0.1-3.1,0.2v-1.6H116.8z"/>
				<path d="M126.9,46.8c0.6-2.1,1.3-4.5,1.7-6.5h4c-0.1,1.1-0.1,3.7-0.1,4.6c0,0.8,0,3.6,0.2,5h-2.8c0.2-1.9,0.1-4.7,0.1-7
					c-0.5,1.3-1.9,5.6-2.3,7h-1.9c-0.5-2-1.7-5.5-2.3-7.1c0,2.2,0.1,6.4,0.2,7h-2.6c0.2-1.5,0.2-4.2,0.2-5c0-0.9-0.1-3.5-0.1-4.6h4
					C125.5,41.5,126.2,44.7,126.9,46.8z"/>
				<path d="M139.9,40.3c0.4,1.1,3.5,8.1,4.3,9.7H141c-0.1-0.4-0.4-0.9-0.8-2.1c-0.5,0-1,0-1.6,0c-0.6,0-1.1,0-1.6,0
					c-0.3,0.8-0.5,1.4-0.8,2.1h-2.8c0.5-1.2,3.7-8.1,4.3-9.7H139.9z M139.7,46.4c-0.4-0.9-0.9-2.1-1.1-2.9c-0.3,0.8-0.8,2.1-1.1,2.9
					c0.4,0,0.8,0,1.2,0C139,46.4,139.2,46.4,139.7,46.4z"/>
				<path d="M154.1,40.3c-0.1,1.1-0.1,3.6-0.1,4.6c0,0.9,0,3.7,0.1,5.1h-2.3l-3.7-5.4c-0.3-0.4-0.5-0.8-0.6-1.3v3.1
					c0,1.2,0,2.8,0.1,3.7h-2.6c0.2-1.5,0.2-4.2,0.2-5.1c0-0.9-0.1-3.5-0.1-4.6h3l3.1,5c0.2,0.3,0.2,0.4,0.3,0.6v-5.6H154.1z"/>
				<path d="M161.3,40.3c0.4,1.1,3.5,8.1,4.3,9.7h-3.2c-0.1-0.4-0.4-0.9-0.8-2.1c-0.5,0-1,0-1.6,0c-0.6,0-1.1,0-1.6,0
					c-0.3,0.8-0.5,1.4-0.8,2.1h-2.8c0.5-1.2,3.7-8.1,4.3-9.7H161.3z M161,46.4c-0.4-0.9-0.9-2.1-1.1-2.9c-0.3,0.8-0.8,2.1-1.1,2.9
					c0.4,0,0.8,0,1.2,0C160.4,46.4,160.6,46.4,161,46.4z"/>
				<path d="M175.6,45.3c-0.1,0.9-0.1,3-0.1,4.1c-1,0.5-2.7,0.8-4.2,0.8c-3.6,0-5.9-2.3-5.9-5c0-2.9,2.4-5.1,6.3-5.1
					c0.9,0,2.2,0.1,3.2,0.4l-0.7,1.9c-0.7-0.4-1.8-0.8-2.5-0.8c-2.3,0-3.1,2-3.1,3.6c0,2.7,1.4,3.6,3.1,3.6c0.2,0,0.8,0,1-0.1
					c0-1.2,0-2.6-0.1-3.4H175.6z"/>
				<path d="M185.3,40.3v1.6c-1.2-0.1-2.1-0.2-2.9-0.2H181c-0.2,0-0.3,0-0.5,0c-0.1,0-0.2,0-0.4,0c0,0.9,0,1.8,0,2.5l3.5-0.1v1.6
					l-3.5-0.1c0,0.6,0,1.9,0.1,2.8c1.6,0,3.7-0.1,5.3-0.2V50h-8.4c0.1-1.3,0.1-4.2,0.1-5c0-0.9-0.1-3.5-0.1-4.6H185.3z"/>
				<path d="M193.2,46.8c0.6-2.1,1.3-4.5,1.7-6.5h4c-0.1,1.1-0.1,3.7-0.1,4.6c0,0.8,0,3.6,0.2,5h-2.8c0.2-1.9,0.1-4.7,0.1-7
					c-0.5,1.3-1.9,5.6-2.3,7h-1.9c-0.5-2-1.7-5.5-2.3-7.1c0,2.2,0.1,6.4,0.2,7h-2.6c0.2-1.5,0.2-4.2,0.2-5c0-0.9-0.1-3.5-0.1-4.6h4
					C191.8,41.5,192.5,44.7,193.2,46.8z"/>
				<path d="M209,40.3v1.6c-1.2-0.1-2.1-0.2-2.9-0.2h-1.3c-0.2,0-0.3,0-0.5,0c-0.1,0-0.2,0-0.4,0c0,0.9,0,1.8,0,2.5l3.5-0.1v1.6
					l-3.5-0.1c0,0.6,0,1.9,0.1,2.8c1.6,0,3.7-0.1,5.3-0.2V50h-8.4c0.1-1.3,0.1-4.2,0.1-5c0-0.9-0.1-3.5-0.1-4.6H209z"/>
				<path d="M220.1,40.3c-0.1,1.1-0.1,3.6-0.1,4.6c0,0.9,0,3.7,0.1,5.1h-2.3l-3.7-5.4c-0.3-0.4-0.5-0.8-0.6-1.3v3.1
					c0,1.2,0,2.8,0.1,3.7h-2.6c0.2-1.5,0.2-4.2,0.2-5.1c0-0.9-0.1-3.5-0.1-4.6h3l3.1,5c0.2,0.3,0.2,0.4,0.3,0.6v-5.6H220.1z"/>
				<path d="M230.6,40.3v1.6c-1.4-0.1-2-0.2-3.1-0.2c-0.1,1.1-0.1,2.6-0.1,3.2c0,0.8,0,3.6,0.2,5.1h-3.2c0.2-1.5,0.2-4.2,0.2-5.1
					c0-0.6-0.1-2.2-0.1-3.2c-1.1,0-1.7,0.1-3.1,0.2v-1.6H230.6z"/>
			</g>
		</g>
	</g>
	<g>
		<path d="M68.9,18.1c0.1,1.7,0.2,5.8,0.2,7.4c0,1.4,0,6.1-0.2,8.1l0,0.2l7.3,0c3.6,0,7.4-1.1,7.4-4.3c0-2-1.5-3.5-4.2-4.3
			c2-0.5,3.3-1.9,3.3-3.5c0-2.6-3-3.6-5.8-3.7c0,0-8.1,0-8.1,0L68.9,18.1z M74.6,19.7c3.1,0,4.2,0.6,4.2,2.3c0,0.4-0.1,0.8-0.4,1.2
			c-0.6,0.7-1.8,1.1-3.2,1h-0.1l-0.8,2.2h0.9c1.7-0.1,3.2,0.5,3.9,1.4c0.4,0.4,0.5,0.9,0.5,1.4c0,1.8-1.5,2.7-4.6,2.7
			c-0.5,0-1.3,0-1.9,0C73,29.6,73,26.4,73,25.5c0-1.1,0-3.6,0.1-5.7C73.5,19.8,74,19.7,74.6,19.7z"/>
		<path d="M100.5,18H97l0.2,4c0.1,2,0.1,4,0.3,6l0,0l0,0c-0.2-0.6-0.4-0.9-1.5-2.5c0-0.1-3.7-5.8-5-7.4l0,0h-4.2l0,0.2
			c0.1,1.7,0.2,5.8,0.2,7.4c0,1.4,0,6.1-0.2,8.1l0,0.2h3.7l0-0.2c-0.2-3.9-0.2-7.8-0.2-11.5v0c0.1,0.5,0.3,0.9,0.9,1.7
			c0.1,0.1,6.4,9.3,6.7,9.9l0,0.1h3l0-0.2c-0.2-2-0.2-6.7-0.2-8.1c0-1.5,0.1-5.7,0.2-7.4l0-0.2H100.5z"/>
		<path d="M104.8,18.1c0.1,1.7,0.2,5.8,0.2,7.4c0,1.4,0,6.1-0.2,8.1l0,0.2h4.4l0-0.2c-0.2-1.4-0.2-4.2-0.2-6.4c0.2,0,0.8,0,0.8,0
			l0.6,0c5.8,0,8.6-1.5,8.6-4.8c0-3.7-3.9-4.5-7.3-4.6l-6.9,0L104.8,18.1z M110.2,19.9c2.1,0,3.5,0.4,4.2,1.2
			c0.3,0.4,0.5,0.9,0.5,1.4c0,2.3-2.6,2.8-4.7,2.8l-0.9,0c0,0-0.2,0-0.3-0.1c0-0.5,0-1.2,0-2c0-1,0-2.2,0.1-3.3
			C109.3,19.9,109.7,19.9,110.2,19.9z"/>
		<path d="M127.4,18.1c0.1,1.7,0.2,5.8,0.2,7.4c0,1.4,0,6.1-0.2,8.1l0,0.2h4.4l0-0.2c-0.2-1.4-0.2-4.2-0.2-6.4c0.2,0,0.8,0,0.8,0
			l0.6,0c5.8,0,8.6-1.5,8.6-4.8c0-3.7-3.9-4.5-7.3-4.6l-6.9,0L127.4,18.1z M132.7,19.9c2.1,0,3.5,0.4,4.2,1.2
			c0.3,0.4,0.5,0.9,0.5,1.4c0,2.3-2.6,2.8-4.7,2.8l-0.9,0c0,0-0.2,0-0.3-0.1c0-0.5,0-1.2,0-2c0-1,0-2.2,0.1-3.3
			C131.8,19.9,132.3,19.9,132.7,19.9z"/>
		<path d="M147.4,18L147.4,18l-0.1,0.1c-0.8,2.2-6.1,13.7-6.9,15.5l-0.1,0.2h3.8l0-0.1c0.3-1.1,0.7-2.3,1.2-3.6c0.1,0,3.1,0,3.1,0
			l2.6,0c0,0,0.5,0,0.6,0c0.7,1.7,1.2,3,1.4,3.6l0,0.1h4.4l-7-15.8h-0.1H147.4z M148.5,22.6c0.4,0.7,1.3,2.9,2.3,5.4
			c-0.2,0-0.3,0-0.3,0l-1.9,0c0,0-2,0-2.3,0C147,26,147.8,24.2,148.5,22.6z"/>
		<path d="M159.1,18.1c0.1,1.7,0.2,5.8,0.2,7.4c0,1.4,0,6.1-0.2,8.1l0,0.2h4.4l0-0.2c-0.2-2-0.2-6.7-0.2-8.1c0-1.1,0-3.6,0.1-5.5
			c0.4,0,0.9-0.1,1.2-0.1c2.1,0,3.5,0.4,4.2,1.2c0.3,0.4,0.5,0.9,0.5,1.4c0,1.8-1.7,2.7-3.3,2.8c-0.5,0-0.9,0-0.9,0l-0.3-0.1
			l0.2,0.3c1.5,2.3,3.9,6.3,4.9,8.1l0,0.1h4.7l-0.1-0.2c-0.2-0.3-3.2-4.8-4.6-6.7c0,0,0-0.1-0.1-0.1c2.4-0.7,3.6-2.1,3.6-4.2
			c0-3.7-4-4.5-7.3-4.6l-6.9,0L159.1,18.1z"/>
		<path d="M180.7,18h-4.2l0,0.2c0.1,1.7,0.2,5.8,0.2,7.4c0,1.4,0,6.1-0.2,8.1l0,0.2h4.4l0-0.2c-0.2-2-0.2-6.7-0.2-8.1
			c0-1.5,0.1-5.7,0.2-7.4l0-0.2H180.7z"/>
		<path d="M184.8,18.1c0.1,1.7,0.2,5.8,0.2,7.4c0,1.4,0,6.1-0.2,8.1l0,0.2l7.3,0c3.6,0,7.4-1.1,7.4-4.3c0-2-1.4-3.5-4.2-4.3
			c2-0.5,3.4-1.9,3.4-3.5c0-2.6-3-3.6-5.8-3.7c0,0-8.1,0-8.1,0L184.8,18.1z M190.5,19.7L190.5,19.7c3.1,0,4.2,0.6,4.2,2.3
			c0,0.4-0.1,0.8-0.4,1.2c-0.6,0.7-1.7,1.1-3.2,1H191l-0.8,2.2h0.9c1.7-0.1,3.1,0.5,3.9,1.4c0.3,0.4,0.5,0.9,0.5,1.4
			c0,1.8-1.5,2.7-4.5,2.7c-0.5,0-1.3,0-1.9,0c-0.1-2.3-0.1-5.5-0.1-6.4c0-1.1,0-3.6,0.1-5.7C189.4,19.8,190,19.7,190.5,19.7z"/>
		<path d="M210.3,18h-3l0,0.1c-0.9,2.4-6.4,14.5-6.9,15.5l-0.1,0.2h3.8l0-0.1c0.3-1.1,0.7-2.3,1.2-3.6c0.1,0,3.1,0,3.1,0l2.6,0
			c0,0,0.4,0,0.6,0c0.7,1.7,1.2,3,1.4,3.6l0,0.1h4.4L210.3,18L210.3,18z M208.5,22.6c0.4,0.7,1.2,2.9,2.3,5.3c-0.2,0-0.3,0-0.3,0
			l-1.9,0c0,0-2,0-2.3,0C207,26,207.8,24.2,208.5,22.6z"/>
		<path d="M218.7,22.1c0,2.8,2.8,3.9,5.3,4.9c1.9,0.8,3.9,1.6,3.9,2.9c0,0.4-0.1,0.7-0.3,1c-0.5,0.5-1.4,0.8-2.9,0.7
			c-1.4-0.1-3.1-0.5-4.9-1.4l-0.8-0.4l0,0.6v2.8l0.5,0.1l0.3,0.1c0.9,0.2,2.7,0.6,4.5,0.6c4.6,0,7.4-1.8,7.4-4.9c0-2.8-2.9-4-5.4-5
			c-1.9-0.7-3.8-1.5-3.8-2.7c0-0.4,0-1.4,2.4-1.4c1.8,0,3.5,0.7,4.5,1.1l0.9,0.4l0-0.6V18l-0.9-0.2c-0.9-0.2-2.4-0.5-3.9-0.5
			C221.4,17.4,218.7,19.3,218.7,22.1z"/>
	</g>
</g>
</svg>
